<svg xmlns="http://www.w3.org/2000/svg" viewBox="0 0 382.29 115.39"><g fill="#3e3174"><path fill-rule="evenodd" d="M94.53 57.36h-.01l-.01-.02a4.227 4.227 0 0 0-2.99-1.25H30.58c-1.1 0-2.1.43-2.87 1.11-.05.04-.09.09-.14.13-.76.77-1.24 1.83-1.25 3v50.8c0 1.12.45 2.2 1.24 2.99h.01l.01.02c.78.78 1.84 1.25 3 1.25h60.94c1.17 0 2.23-.48 3-1.25s1.25-1.83 1.25-3V60.35c0-1.16-.47-2.22-1.24-2.99Zm-39.87 4.21c1.52 0 2.76 1.24 2.76 2.76s-1.24 2.76-2.76 2.76-2.76-1.24-2.76-2.76 1.24-2.76 2.76-2.76Zm-9.65 0a2.758 2.758 0 0 1 2.83 2.68 2.758 2.758 0 0 1-2.68 2.83h-.15a2.766 2.766 0 0 1-2.69-2.83A2.763 2.763 0 0 1 45 61.56Zm-9.64 0c1.52-.04 2.79 1.16 2.83 2.68s-1.16 2.79-2.68 2.83h-.15a2.766 2.766 0 0 1-2.69-2.83 2.763 2.763 0 0 1 2.68-2.69Zm56.57 49.56c0 .11-.06.21-.13.29a.4.4 0 0 1-.29.12H30.58c-.11 0-.21-.04-.29-.11a.55.55 0 0 1-.11-.3V71.31c.13.02.27.03.41.03h60.95c.14 0 .27-.01.41-.03v39.82Z"/><path fill-rule="evenodd" d="M55.91 100.7H37.46c-.88 0-1.6.79-1.6 1.76s.72 1.75 1.6 1.75l18.45.01c.88 0 1.6-.79 1.6-1.76s-.72-1.76-1.6-1.76Zm27.5 0h-19.9c-.9 0-1.62.79-1.62 1.76s.73 1.75 1.62 1.75l19.9.01c.9 0 1.62-.79 1.62-1.76s-.73-1.76-1.62-1.76Z"/><path d="M36.27 75.74h48.56v19.01H36.27z"/></g><path fill="#232f3e" fill-rule="evenodd" d="M60.53 11.46a31.69 31.69 0 0 0-5.51.06c-5.63.54-11.1 2.59-15.62 6.1-5.23 4.05-9.2 10.11-10.73 18.14l-.48 2.51-2.5.44c-2.45.43-4.64 1.02-6.56 1.77-1.86.72-3.52 1.61-4.97 2.66-1.16.84-2.16 1.78-3.01 2.8-2.63 3.15-3.85 7.1-3.82 11.1.04 4.14 1.37 8.17 3.79 11.53.91 1.25 1.96 2.4 3.16 3.4 1.24 1.03 2.64 1.87 4.13 2.48.87.36 1.8.66 2.77.9v7.49c-2-.36-3.84-.9-5.56-1.61-2.27-.94-4.28-2.15-6.05-3.63-1.68-1.4-3.15-2.99-4.4-4.72C1.84 68.28.04 62.66 0 57.06c-.04-5.66 1.72-11.29 5.52-15.85 1.23-1.48 2.68-2.84 4.34-4.04 1.93-1.4 4.14-2.58 6.64-3.55 1.72-.67 3.56-1.23 5.5-1.68 2.2-8.74 6.89-15.47 12.92-20.14 5.64-4.37 12.43-6.92 19.42-7.59 3.67-.35 7.39-.19 11.03.49-.08.33-.15.66-.19 1v.06c-.08.57-.11 1.14-.08 1.72-.77.3-1.49.71-2.14 1.21l-.03.02c-.97.73-1.79 1.67-2.4 2.75Zm52.91 19.2c.56.51 1.1 1.04 1.63 1.61 1.07 1.15 2.08 2.45 3.03 3.9 3.2 4.92 4.84 11.49 4.77 17.92-.07 6.31-1.77 12.59-5.25 17.21-2.27 3.01-5.18 5.47-8.67 7.42-2.39 1.34-5.08 2.45-8.01 3.35v-7.75c1.58-.59 3.05-1.25 4.4-2 2.63-1.47 4.78-3.26 6.39-5.41 2.5-3.33 3.73-8.04 3.78-12.87.06-5.07-1.18-10.16-3.59-13.86-.69-1.07-1.45-2.03-2.25-2.89-.31-.33-.62-.64-.94-.94.05-.5.07-1.01.04-1.52.77-.3 1.49-.71 2.14-1.21l.03-.02a9.078 9.078 0 0 0 2.5-2.94Z"/><path fill="#f90" d="m74.33 34.43-6.29 2.7 5.82 2.49 6.75-2.49-6.29-2.7Zm-9.45 3.38-.21 12.15 9.2 4.05V41.39l-8.99-3.59Zm18.9 0-8.31 3.16v11.9l8.31-3.38V37.8ZM93.7 0l-6.33 2.7 5.87 2.49 6.75-2.49L93.7 0Zm-8.78 3.59v12.15l7.85 2.28.25-11.06-8.1-3.38Zm17.55.68-7.43 3.16v11.94l7.43-3.38V4.26Zm-38.5 12.84-6.29 2.7 5.82 2.49 6.75-2.49-6.29-2.7Zm-9.45 3.38-.21 12.15 9.2 4.05V24.07l-8.99-3.59Zm18.9 0-8.31 3.16v11.9l8.31-3.38V20.48Zm10.8-3.82-6.29 2.7 5.82 2.49 6.75-2.49-6.29-2.7Zm-9.45 3.38-.21 12.15 9.2 4.05V23.64l-8.99-3.59Zm18.9 0-8.31 3.16v11.9l8.31-3.38V20.04ZM113.48 0l-6.29 2.7 5.82 2.49 6.75-2.49-6.28-2.7Zm-9.45 3.38-.21 12.15 9.2 4.05V6.96l-8.99-3.59Zm18.9 0-8.31 3.16v11.9l8.31-3.38V3.38Z"/><path fill="#fff" stroke="#232f3e" stroke-miterlimit="10" d="M155.66 82.07V35.73h10.09v37.31h17.16v9.03h-27.25Zm46.89.84c-2.48 0-4.82-.39-7.03-1.16-2.21-.77-4.21-1.91-6.02-3.41-1.8-1.5-3.23-3.5-4.3-6.02-1.06-2.51-1.59-5.37-1.59-8.58 0-2.56.35-4.91 1.05-7.03.7-2.12 1.65-3.92 2.84-5.38 1.2-1.46 2.61-2.69 4.23-3.69s3.34-1.73 5.16-2.2 3.7-.7 5.66-.7 3.81.23 5.62.7 3.53 1.2 5.14 2.2c1.61 1 3.02 2.23 4.22 3.69 1.2 1.46 2.15 3.25 2.84 5.38.7 2.12 1.05 4.47 1.05 7.03s-.35 4.95-1.05 7.09c-.7 2.15-1.64 3.95-2.83 5.42s-2.59 2.71-4.2 3.72c-1.62 1.01-3.33 1.75-5.14 2.22s-3.7.7-5.66.7Zm0-8.12c2.75 0 4.97-.99 6.67-2.97 1.7-1.98 2.55-4.67 2.55-8.06s-.85-6.04-2.56-8-3.95-2.94-6.72-2.94-4.97.97-6.67 2.92c-1.7 1.95-2.55 4.62-2.55 8.02s.85 6.11 2.56 8.08c1.71 1.97 3.95 2.95 6.72 2.95Zm40.89 8c-5.33 0-9.74-1.78-13.22-5.34S225 69.33 225 63.76s1.74-10.12 5.22-13.67c3.48-3.55 7.88-5.33 13.22-5.33 9.9 0 15.76 4.44 17.59 13.31l-8.5 1.34c-1.42-4.4-4.3-6.59-8.66-6.59-2.73 0-4.94 1.01-6.62 3.02-1.69 2.01-2.53 4.65-2.53 7.92s.84 5.88 2.53 7.88 3.9 3 6.62 3c2.06 0 3.85-.57 5.36-1.72 1.51-1.15 2.57-2.74 3.17-4.78l8.56 1.34c-.83 4.25-2.78 7.53-5.83 9.84-3.05 2.31-6.95 3.47-11.7 3.47Zm36.26.12c-2.29 0-4.42-.43-6.39-1.28s-3.68-2.08-5.14-3.67c-1.46-1.59-2.61-3.61-3.45-6.05s-1.27-5.16-1.27-8.16.42-5.71 1.25-8.14c.83-2.43 1.98-4.42 3.44-5.98 1.46-1.56 3.17-2.77 5.12-3.61 1.96-.84 4.08-1.27 6.38-1.27 2.62 0 5 .61 7.14 1.84 2.13 1.23 3.66 2.92 4.58 5.06v-6.19h9.72v36.53h-9.72v-5.97c-.88 2.08-2.39 3.75-4.55 5s-4.53 1.88-7.11 1.88Zm2.75-8.12c2.73 0 4.95-.99 6.66-2.97 1.71-1.98 2.56-4.67 2.56-8.06s-.85-6.04-2.56-8-3.95-2.94-6.72-2.94-4.97.97-6.67 2.92c-1.7 1.95-2.55 4.62-2.55 8.02s.85 6.11 2.56 8.08c1.71 1.97 3.95 2.95 6.72 2.95Zm24.96 7.28v-48.5h9.78v48.5h-9.78Zm35.57.62c-6.6 0-11.53-1.81-14.78-5.44s-4.88-9.19-4.88-16.69V35.72h10.12V60.5c0 4.62.75 7.97 2.27 10.03 1.51 2.06 3.93 3.09 7.27 3.09s5.72-1.03 7.22-3.09 2.25-5.38 2.25-9.97V35.72h10.19v24.91c0 7.44-1.64 12.97-4.91 16.61-3.27 3.64-8.19 5.45-14.75 5.45Zm26.49-.62V35.73h10.09v46.34h-10.09Z"/></svg>