<?xml version="1.0" standalone="no"?>
<!DOCTYPE svg PUBLIC "-//W3C//DTD SVG 20010904//EN"
 "http://www.w3.org/TR/2001/REC-SVG-20010904/DTD/svg10.dtd">
<svg version="1.0" xmlns="http://www.w3.org/2000/svg"
 width="700.000000pt" height="700.000000pt" viewBox="0 0 700.000000 700.000000"
 preserveAspectRatio="xMidYMid meet">
<metadata>
Created by potrace 1.14, written by Peter Selinger 2001-2017
</metadata>
<g transform="translate(0.000000,700.000000) scale(0.100000,-0.100000)"
fill="#000000" stroke="none">
<path d="M6375 6752 c-44 -19 -94 -41 -112 -48 -17 -8 -61 -27 -98 -42 l-67
-29 166 -71 c165 -71 167 -71 204 -57 20 8 100 37 177 65 77 29 146 55 153 59
7 4 -27 24 -85 48 -54 23 -134 57 -178 76 l-80 34 -80 -35z"/>
<path d="M5200 6732 c-58 -26 -131 -58 -162 -72 -32 -13 -54 -28 -50 -31 4 -4
77 -37 162 -72 l155 -65 180 65 c99 35 184 68 188 72 4 4 -23 20 -60 36 -37
16 -90 38 -118 51 -129 57 -149 64 -169 63 -11 0 -68 -22 -126 -47z"/>
<path d="M5919 6568 c-1 -39 -7 -344 -9 -506 -1 -85 1 -156 4 -159 3 -3 120
-56 261 -118 l255 -113 -2 360 -3 360 -231 93 c-293 118 -274 112 -275 83z"/>
<path d="M6750 6502 l-225 -87 -2 -338 c-1 -313 0 -338 15 -332 191 71 451
183 454 195 9 37 2 644 -7 646 -6 1 -111 -37 -235 -84z"/>
<path d="M4830 6236 l0 -344 33 -10 c89 -27 154 -45 277 -81 l135 -38 5 66 c3
36 5 178 5 315 l0 250 -220 92 c-121 51 -223 93 -227 93 -5 1 -8 -154 -8 -343z"/>
<path d="M3178 6555 c-2 -2 -43 -6 -93 -10 -49 -4 -92 -8 -95 -10 -3 -2 -27
-6 -55 -9 -223 -30 -552 -153 -772 -289 -430 -267 -755 -700 -888 -1182 -21
-75 -24 -81 -56 -91 -19 -7 -99 -33 -179 -58 -515 -165 -858 -501 -990 -971
-37 -131 -50 -251 -45 -420 6 -259 53 -449 166 -672 113 -223 288 -424 489
-560 130 -88 344 -173 522 -208 23 -5 24 5 23 225 l-1 194 -89 31 c-117 41
-174 70 -270 143 -398 296 -545 892 -327 1327 163 327 504 524 1057 609 24 4
33 19 39 63 13 86 67 294 102 392 51 140 165 348 243 444 206 252 439 419 733
528 85 31 244 73 318 84 25 4 56 9 70 11 14 3 101 6 194 8 l170 4 31 44 c44
60 120 125 180 155 50 25 50 25 52 75 0 28 4 63 7 79 6 30 2 32 -94 44 -25 3
-63 8 -85 11 -39 6 -352 13 -357 9z"/>
<path d="M5615 6453 c-110 -48 -202 -88 -204 -89 -3 -3 -4 -560 -2 -655 l1
-26 78 37 c42 20 137 63 209 96 l133 59 0 333 c0 182 -3 332 -7 331 -5 0 -98
-39 -208 -86z"/>
<path d="M4619 5763 c-95 -41 -175 -75 -176 -77 -5 -4 33 -22 182 -85 109 -46
145 -57 165 -50 14 4 100 36 193 71 113 42 161 65 150 69 -10 4 -91 38 -179
77 l-162 69 -173 -74z"/>
<path d="M3458 5736 c-92 -39 -168 -73 -168 -76 0 -3 73 -37 161 -74 l162 -68
188 68 c104 38 185 72 181 76 -11 11 -335 148 -347 147 -5 -1 -85 -33 -177
-73z"/>
<path d="M4257 5634 c-3 -3 -6 -79 -7 -167 -1 -89 -3 -241 -5 -339 l-2 -176
66 -28 c36 -15 93 -40 126 -55 118 -54 317 -139 324 -139 4 0 7 160 6 356 l0
355 -235 95 c-270 108 -264 106 -273 98z"/>
<path d="M5280 5628 c-68 -29 -88 -37 -130 -51 -25 -9 -101 -38 -170 -64
l-124 -49 -1 -337 c0 -319 1 -336 18 -331 10 3 115 45 235 94 l217 88 3 331
c2 355 4 341 -48 319z"/>
<path d="M3099 5517 c0 -56 -1 -212 -2 -346 l-2 -244 255 -113 c140 -62 256
-111 258 -109 3 3 5 593 3 686 -1 23 -11 30 -88 62 -155 63 -347 139 -385 153
l-38 13 -1 -102z"/>
<path d="M3940 5530 l-235 -89 0 -335 c0 -185 3 -336 6 -336 9 0 130 46 181
69 24 10 97 41 163 68 l120 49 1 332 c1 183 1 332 0 332 -1 -1 -107 -41 -236
-90z"/>
<path d="M6435 5007 c-31 -52 -138 -150 -193 -177 -50 -24 -52 -26 -52 -69 0
-38 6 -50 51 -99 158 -173 254 -374 306 -637 26 -135 25 -473 -2 -595 -4 -14
-8 -36 -11 -50 -11 -57 -58 -190 -91 -258 -98 -201 -276 -367 -530 -491 -54
-27 -114 -53 -134 -60 l-35 -11 -1 -221 0 -220 26 6 c51 12 217 77 309 120
392 185 655 457 796 820 33 87 69 212 81 285 3 19 10 60 16 90 26 130 17 538
-15 670 -3 14 -8 36 -10 50 -16 100 -78 286 -135 403 -78 162 -225 362 -337
459 -19 17 -21 16 -39 -15z"/>
<path d="M4052 4752 c-95 -42 -169 -79 -165 -83 5 -4 77 -36 161 -72 l154 -66
176 65 c98 35 184 67 192 70 10 4 2 12 -25 24 -44 21 -269 118 -300 129 -14 6
-69 -14 -193 -67z"/>
<path d="M3689 4508 c-1 -68 -3 -222 -5 -344 l-4 -221 223 -98 c122 -54 239
-106 260 -115 25 -12 37 -14 38 -7 7 93 2 701 -6 707 -11 9 -485 200 -497 200
-5 0 -8 -55 -9 -122z"/>
<path d="M4715 4616 c-16 -8 -118 -47 -226 -88 l-195 -73 0 -338 c0 -300 2
-337 15 -332 9 3 115 45 236 94 l220 90 1 330 c1 238 -2 331 -10 331 -6 0 -24
-7 -41 -14z"/>
<path d="M1699 3589 c-89 -14 -166 -83 -190 -167 -11 -38 -13 -328 -13 -1527
0 -1478 0 -1480 21 -1526 22 -50 69 -101 118 -128 28 -15 179 -16 1820 -19
1642 -2 1794 -1 1834 14 55 21 106 66 134 118 l22 41 0 1510 c0 1433 -1 1512
-18 1546 -26 51 -75 99 -127 122 -45 21 -59 21 -1806 21 -969 1 -1776 -2
-1795 -5z m376 -319 c39 -15 83 -66 91 -105 14 -78 -12 -137 -77 -174 -132
-75 -280 72 -210 207 36 70 120 101 196 72z m559 -5 c76 -36 108 -139 66 -213
-83 -147 -307 -76 -288 92 12 107 124 167 222 121z m564 -12 c80 -60 88 -169
18 -239 -101 -101 -278 -13 -261 129 6 49 28 83 76 115 28 20 43 23 87 20 32
-3 64 -13 80 -25z m2032 -1665 c0 -733 -3 -1139 -10 -1143 -17 -11 -3492 -8
-3499 3 -5 8 -7 2247 -2 2272 1 3 791 6 1756 6 l1755 0 0 -1138z"/>
<path d="M2065 2465 c-2 -5 -3 -248 -2 -540 l2 -530 1380 0 1380 0 0 540 0
540 -1379 0 c-935 0 -1379 -3 -1381 -10z"/>
<path d="M2118 1052 c-35 -9 -58 -28 -68 -55 -16 -48 -12 -75 19 -109 l29 -33
544 -1 c587 -1 593 0 617 52 14 31 14 66 0 97 -24 52 -14 51 -591 52 -295 0
-543 -1 -550 -3z"/>
<path d="M3593 1052 c-12 -2 -34 -17 -48 -34 -21 -24 -25 -38 -21 -70 5 -43
18 -63 50 -81 33 -18 1171 -18 1208 0 60 29 71 113 22 163 l-24 25 -583 0
c-320 0 -592 -1 -604 -3z"/>
</g>
</svg>
